{"title":"RED 2 2013 BRRip 720p x264 Dual Audio [Hindi+Eng] YsB TeaM SSX","uid":9943487,"size":1114474166,"categoryP":"video","categoryS":"hd___movies","magnet":"?xt=urn:btih:86affed5def1cd1950e8aea29e70ae99b1458f42&amp;dn=RED+2+2013+BRRip+720p+x264+Dual+Audio+%5BHindi%2BEng%5D+YsB+TeaM+SSX&amp;tr=udp%3A%2F%2Ftracker.openbittorrent.com%3A80&amp;tr=udp%3A%2F%2Fopen.demonii.com%3A1337&amp;tr=udp%3A%2F%2Ftracker.coppersurfer.tk%3A6969&amp;tr=udp%3A%2F%2Fexodus.desync.com%3A6969","seeders":1,"leechers":0,"uploader":"Dj_SaM","files":10,"time":1397283243,"description":"RED 2 2013 BRRip 720p x264 Dual Audio [Hindi+Eng] YsB TeaM SSX\n\nTeaM SSX Presents...\n\n &lt;a href=&quot;\nhttp://i.imgur.com/ckGmFFJ.jpg&quot; rel=&quot;nofollow&quot; target=&quot;_NEW&quot;&gt;\nhttp://i.imgur.com/ckGmFFJ.jpg&lt;/a&gt;\n\n\nInfo:\nGeneral\nUnique ID                                : 189513231075652421255572081113944771953 (0x8E92EBB0487DA64FA2073F60991F4D71)\nComplete name                            : RED 2 2013 BRRip 720p x264 Dual Audio [Hindi+Eng] YsB TeaM SSX.mkv\nFormat                                   : Matroska\nFormat version                           : Version 4 / Version 2\nFile size                                : 1.04 GiB\nDuration                                 : 1h 55mn\nOverall bit rate mode                    : Variable\nOverall bit rate                         : 1 282 Kbps\nMovie name                               : RED 2 2013 BRRip 720p x264 Dual Audio [Hindi+Eng] YsB TeaM SSX\nEncoded date                             : UTC 2014-04-12 02:53:04\nWriting application                      : mkvmerge v6.8.0 ('Theme for Great Cities') 32bit built on Mar  2 2014 21:27:07\nWriting library                          : libebml v1.3.0 + libmatroska v1.4.1\n\nVideo\nID                                       : 1\nFormat                                   : AVC\nFormat/Info                              : Advanced Video Codec\nFormat profile                           : &lt;a class=&quot;__cf_email__&quot; href=&quot;/cdn-cgi/l/email-protection&quot; data-cfemail=&quot;2961404e4169651d0718&quot;&gt;[email&amp;#160;protected]&lt;/a&gt;&lt;script cf-hash='f9e31' type=&quot;text/javascript&quot;&gt;\n/* &lt;![CDATA[ */!function(){try{var t=&quot;currentScript&quot;in document?document.currentScript:function(){for(var t=document.getElementsByTagName(&quot;script&quot;),e=t.length;e--;)if(t[e].getAttribute(&quot;cf-hash&quot;))return t[e]}();if(t&amp;&amp;t.previousSibling){var e,r,n,i,c=t.previousSibling,a=c.getAttribute(&quot;data-cfemail&quot;);if(a){for(e=&quot;&quot;,r=parseInt(a.substr(0,2),16),n=2;a.length-n;n+=2)i=parseInt(a.substr(n,2),16)^r,e+=String.fromCharCode(i);e=document.createTextNode(e),c.parentNode.replaceChild(e,c)}}}catch(u){}}();/* ]]&gt; */&lt;/script&gt;\nFormat settings, CABAC                   : Yes\nFormat settings, ReFrames                : 4 frames\nCodec ID                                 : V_MPEG4/ISO/AVC\nDuration                                 : 1h 55mn\nBit rate mode                            : Variable\nBit rate                                 : 1 024 Kbps\nMaximum bit rate                         : 40.0 Mbps\nWidth                                    : 1 280 pixels\nHeight                                   : 528 pixels\nDisplay aspect ratio                     : 2.40:1\nFrame rate mode                          : Constant\nFrame rate                               : 23.976 fps\nColor space                              : YUV\nChroma subsampling                       : 4:2:0\nBit depth                                : 8 bits\nScan type                                : Progressive\nBits/(Pixel*Frame)                       : 0.063\nStream size                              : 829 MiB (78%)\nTitle                                    : RED 2 2013 BRRip 720p x264 Dual Audio [Hindi+Eng] YsB TeaM SSX\nWriting library                          : x264 core 138 r2358 9e941d1\nLanguage                                 : English\nDefault                                  : Yes\nForced                                   : No\n\nAudio #1\nID                                       : 2\nFormat                                   : AC-3\nFormat/Info                              : Audio Coding 3\nMode extension                           : CM (complete main)\nFormat settings, Endianness              : Big\nCodec ID                                 : A_AC3\nDuration                                 : 1h 55mn\nBit rate mode                            : Constant\nBit rate                                 : 128 Kbps\nChannel(s)                               : 2 channels\nChannel positions                        : Front: L R\nSampling rate                            : 48.0 KHz\nBit depth                                : 16 bits\nCompression mode                         : Lossy\nStream size                              : 106 MiB (10%)\nTitle                                    : TeaM SSX\nLanguage                                 : Hindi\nDefault                                  : Yes\nForced                                   : No\n\nAudio #2\nID                                       : 3\nFormat                                   : AC-3\nFormat/Info                              : Audio Coding 3\nMode extension                           : CM (complete main)\nFormat settings, Endianness              : Big\nCodec ID                                 : A_AC3\nDuration                                 : 1h 55mn\nBit rate mode                            : Constant\nBit rate                                 : 128 Kbps\nChannel(s)                               : 6 channels\nChannel positions                        : Front: L C R, Side: L R, LFE\nSampling rate                            : 48.0 KHz\nBit depth                                : 16 bits\nCompression mode                         : Lossy\nStream size                              : 106 MiB (10%)\nTitle                                    : TeaM SSX\nLanguage                                 : English\nDefault                                  : No\nForced                                   : No\n\nText\nID                                       : 4\nFormat                                   : UTF-8\nCodec ID                                 : S_TEXT/UTF8\nCodec ID/Info                            : UTF-8 Plain Text\nTitle                                    : TeaM SSX\nLanguage                                 : English\nDefault                                  : No\nForced                                   : No\n\nMenu\n00:00:00.000                             : en:00:00:00.000\n00:08:31.094                             : en:00:08:31.094\n00:15:02.193                             : en:00:15:02.193\n00:21:30.497                             : en:00:21:30.497\n00:28:33.337                             : en:00:28:33.337\n00:39:50.888                             : en:00:39:50.888\n00:47:24.425                             : en:00:47:24.425\n00:54:32.561                             : en:00:54:32.561\n01:00:21.326                             : en:01:00:21.326\n01:07:47.021                             : en:01:07:47.021\n01:11:48.804                             : en:01:11:48.804\n01:18:52.770                             : en:01:18:52.770\n01:23:16.283                             : en:01:23:16.283\n01:28:01.067                             : en:01:28:01.067\n01:35:52.455                             : en:01:35:52.455\n01:41:44.306                             : en:01:41:44.306\n01:45:24.026                             : en:01:45:24.026\n01:46:59.913                             : en:01:46:59.913\n\n\nScreenShot: &lt;a href=&quot;\nhttp://i.imgur.com/bBnQuym.jpg&quot; rel=&quot;nofollow&quot; target=&quot;_NEW&quot;&gt;\nhttp://i.imgur.com/bBnQuym.jpg&lt;/a&gt; &lt;a href=&quot;\nhttp://i.imgur.com/DrUNLLz.jpg&quot; rel=&quot;nofollow&quot; target=&quot;_NEW&quot;&gt;\nhttp://i.imgur.com/DrUNLLz.jpg&lt;/a&gt; &lt;a href=&quot;\nhttp://i.imgur.com/MvOD2O6.jpg&quot; rel=&quot;nofollow&quot; target=&quot;_NEW&quot;&gt;\nhttp://i.imgur.com/MvOD2O6.jpg&lt;/a&gt; &lt;a href=&quot;\nhttp://i.imgur.com/fPFuGSF.jpg&quot; rel=&quot;nofollow&quot; target=&quot;_NEW&quot;&gt;\nhttp://i.imgur.com/fPFuGSF.jpg&lt;/a&gt; &lt;a href=&quot;\nhttp://i.imgur.com/66xbsVO.jpg&quot; rel=&quot;nofollow&quot; target=&quot;_NEW&quot;&gt;\nhttp://i.imgur.com/66xbsVO.jpg&lt;/a&gt;\n\nThanks...\nTeaM GPSoft, Public HD, BHATTI87...\nTeaM SSX, Maverick Dude, Hari, Romeo007, HemKumar...","torrent":{"xt":"urn:btih:86affed5def1cd1950e8aea29e70ae99b1458f42","amp;dn":"RED+2+2013+BRRip+720p+x264+Dual+Audio+%5BHindi%2BEng%5D+YsB+TeaM+SSX","amp;tr":["udp%3A%2F%2Ftracker.openbittorrent.com%3A80","udp%3A%2F%2Fopen.demonii.com%3A1337","udp%3A%2F%2Ftracker.coppersurfer.tk%3A6969","udp%3A%2F%2Fexodus.desync.com%3A6969"],"infoHash":"86affed5def1cd1950e8aea29e70ae99b1458f42","infoHashBuffer":{"type":"Buffer","data":[134,175,254,213,222,241,205,25,80,232,174,162,158,112,174,153,177,69,143,66]},"announce":[],"urlList":[]}}